<svg width="2560" height="1440" viewBox="0 0 2560 1440" fill="none" xmlns="http://www.w3.org/2000/svg">
<g clip-path="url(#clip0_2_2)">
<mask id="mask0_2_2" style="mask-type:luminance" maskUnits="userSpaceOnUse" x="0" y="0" width="2560" height="1440">
<path d="M2560 0H0V1440H2560V0Z" fill="white"/>
</mask>
<g mask="url(#mask0_2_2)">
<path d="M2560 0H0V1440H2560V0Z" fill="white"/>
<path d="M0 720V1440H1280H2560V720V0H1280H0V720ZM1532.27 296C1541.87 298.667 1548.13 309.867 1546.13 320.667C1543.2 335.867 1522.93 341.733 1511.87 330.8C1501.2 320 1505.2 301.733 1519.33 296.667C1525.87 294.4 1526.13 294.4 1532.27 296ZM1623.87 296C1628.93 297.333 1636 303.467 1636 306.267C1636 308.8 1631.07 308.4 1629.07 305.6C1625.2 300 1617.47 298.533 1610.93 301.867C1604.13 305.333 1601.6 315.067 1605.2 323.867C1609.2 333.2 1623.2 334.8 1629.07 326.4C1631.07 323.6 1636 323.2 1636 325.733C1636 328.8 1628.8 334.533 1623.33 335.733C1612.8 338 1604 333.867 1599.87 324.933C1596.67 317.6 1596.67 313.867 1600.4 306.667C1602.53 302.267 1604.93 299.867 1609.33 297.6C1616 294.267 1617.47 294.133 1623.87 296ZM1688 297.6C1701.87 304.8 1702.53 324.933 1689.07 333.467C1685.6 335.6 1683.07 336 1676.93 335.6C1670.13 335.2 1668.67 334.533 1664.27 330.267C1660 325.867 1659.47 324.533 1658.93 317.067C1658.53 310 1658.93 308 1661.6 304.133C1665.2 298.8 1672.4 294.667 1678 294.667C1680.27 294.667 1684.8 296 1688 297.6ZM1745.73 298.267C1751.33 301.067 1754.67 307.467 1754.67 315.733C1754.67 329.733 1747.2 335.867 1730.4 336H1721.33V316.133V296.133L1725.07 295.6C1730.53 294.667 1741.6 296.133 1745.73 298.267ZM1799.73 297.6C1800.13 299.733 1799.07 300 1791.47 300H1782.67V306.667V313.333H1790C1795.47 313.333 1797.33 313.867 1797.33 315.2C1797.33 316.667 1795.33 317.333 1790.4 317.6L1783.33 318V324.667V331.333L1791.73 331.733C1797.87 332 1800 332.667 1800 334C1800 335.6 1797.73 336 1788.67 336H1777.33V316.267C1777.33 305.333 1777.73 296 1778.27 295.467C1778.8 294.933 1783.73 294.8 1789.2 294.933C1797.6 295.333 1799.33 295.733 1799.73 297.6ZM899.067 299.6C904.667 302.4 908 308.8 908 317.067C908 331.067 900.533 337.2 883.733 337.333H874.667V317.467V297.467L878.4 296.933C883.867 296 894.933 297.467 899.067 299.6ZM975.6 311.6L986 327.067L986.667 311.867C987.2 298.8 987.6 296.667 989.733 296.267C991.867 295.867 992 297.467 992 316.533C992 343.333 991.333 343.6 976.533 321.6L966 306L965.6 321.6C965.333 336.267 965.067 337.333 962.667 337.333C960.133 337.333 960 336.4 960 317.6C960 306.667 960.4 297.333 960.933 296.933C963.333 294.4 966.133 297.2 975.6 311.6ZM1043.33 297.333C1046.8 298.667 1053.33 304.8 1053.33 306.8C1053.33 309.2 1048 307.867 1044.8 304.667C1040.4 300.267 1031.33 300 1026.27 304.133C1018.67 310 1018.67 323.333 1026.27 329.333C1030 332.267 1038.4 332.933 1042.8 330.667C1044.93 329.467 1049.33 322.933 1049.33 320.667C1049.33 320.267 1045.73 320 1041.33 320C1034.27 320 1033.33 319.733 1033.33 317.333C1033.33 314.933 1034.27 314.667 1044 314.667H1054.67V319.2C1054.67 328.267 1044.8 337.333 1034.93 337.333C1027.73 337.333 1020.13 332.667 1017.2 326.267C1013.87 318.933 1014 313.867 1017.73 306.667C1022.4 297.467 1033.33 293.467 1043.33 297.333ZM1113.33 316.667C1113.33 336.4 1113.2 337.333 1110.67 337.333C1108.13 337.333 1108 336.4 1108 316.667C1108 296.933 1108.13 296 1110.67 296C1113.2 296 1113.33 296.933 1113.33 316.667ZM1162.4 299.2C1175.47 306 1175.2 328 1162 334.667C1159.73 335.733 1153.73 336.8 1148.53 337.067L1139.07 337.6L1138.27 317.867C1137.87 306.933 1137.87 297.467 1138.27 296.8C1139.47 294.933 1157.6 296.667 1162.4 299.2ZM1216 298.667C1216 301.067 1215.07 301.333 1208 301.333H1200V308V314.667H1207.33C1212.93 314.667 1214.67 315.067 1214.67 316.667C1214.67 318.267 1212.93 318.667 1207.33 318.667H1200V325.333V331.867L1208.4 332.267C1214.67 332.533 1216.67 333.2 1216.67 334.667C1216.67 336.267 1214.4 336.8 1205.73 337.067L1194.67 337.467V316.667V296H1205.33C1215.07 296 1216 296.267 1216 298.667ZM1265.07 315.6C1268.93 326.533 1272 335.733 1272 336.267C1272 339.2 1267.6 336.667 1265.73 332.667C1263.47 328 1263.47 328 1254.67 328C1245.73 328 1245.73 328 1244.53 332.267C1243.6 335.333 1242.27 336.8 1240.27 337.067C1238.67 337.333 1237.33 337.2 1237.33 336.8C1237.33 336.267 1246.93 309.333 1250.8 298.933C1251.47 297.067 1253.07 296 1254.93 296C1257.73 296 1258.8 298.133 1265.07 315.6ZM1316.67 299.333C1320.4 302.933 1321.07 306.667 1318 306.667C1316.93 306.667 1314.67 305.2 1312.8 303.333C1308.8 299.333 1304 299.067 1300.67 302.667C1296.67 307.067 1299.6 311.333 1308.53 313.867C1315.6 316 1321.33 320.8 1321.33 324.8C1321.33 331.067 1314.4 337.333 1307.33 337.333C1300.8 337.333 1293.33 331.733 1293.33 326.8C1293.33 324 1298.4 325.333 1300.53 328.667C1303.47 333.067 1310.93 333.333 1313.87 329.067C1316.93 324.8 1314 321.2 1305.2 318.267C1296.93 315.6 1293.33 312 1293.33 306.4C1293.33 300.133 1298.53 296 1306.67 296C1312.13 296 1314.13 296.667 1316.67 299.333ZM1380 316.667C1380 336.4 1379.87 337.333 1377.33 337.333C1374.8 337.333 1374.67 336.4 1374.67 316.667C1374.67 296.933 1374.8 296 1377.33 296C1379.87 296 1380 296.933 1380 316.667ZM1420.27 311.733L1430.67 327.333V311.6C1430.67 296.933 1430.8 296 1433.33 296C1435.87 296 1436 296.933 1436 316.8C1436 342.667 1435.47 342.8 1420.67 320.8L1410 305.067L1409.6 321.333C1409.33 335.733 1409.07 337.467 1406.93 337.067C1404.93 336.667 1404.67 334.267 1404.27 316.267L1403.87 296H1406.93C1409.33 296 1412.27 299.467 1420.27 311.733ZM1485.33 298C1485.33 299.467 1483.87 300 1480 300H1474.67V318C1474.67 335.067 1474.53 336 1472 336C1469.47 336 1469.33 335.067 1469.33 318V300H1464C1460.13 300 1458.67 299.467 1458.67 298C1458.67 296.4 1461.07 296 1472 296C1482.93 296 1485.33 296.4 1485.33 298ZM721.867 300.133C726.133 303.467 726.667 310.4 722.8 313.867C720.4 316.133 720.4 316.267 723.467 319.333C727.733 323.6 727.733 329.733 723.333 334C720.4 336.933 719.067 337.333 709.333 337.333H698.667V317.333V297.333H708.533C716.4 297.333 718.933 297.867 721.867 300.133ZM754.667 311.867C754.667 324.4 755.067 326.8 757.467 329.867C761.067 334.4 766.933 334.533 771.333 330C774.533 326.933 774.667 325.867 774.667 312C774.667 298.267 774.8 297.333 777.333 297.333C779.867 297.333 780 298.267 780 312.267C780 324.8 779.6 328 777.333 331.6C772.133 340.133 757.2 340.133 752 331.6C749.733 328 749.333 324.8 749.333 312.267C749.333 298.267 749.467 297.333 752 297.333C754.533 297.333 754.667 298.267 754.667 311.867ZM809.333 317.333C809.333 336.4 809.2 337.333 806.667 337.333C804.133 337.333 804 336.4 804 317.333C804 298.267 804.133 297.333 806.667 297.333C809.2 297.333 809.333 298.267 809.333 317.333ZM838.933 314.933L839.333 332.667L846.4 333.067C851.333 333.333 853.333 334 853.333 335.467C853.333 336.933 851.2 337.333 843.333 337.333H833.333V317.333C833.333 298.267 833.467 297.333 836 297.333C838.4 297.333 838.667 298.4 838.933 314.933ZM936 317.333C936 336.4 935.867 337.333 933.333 337.333C930.8 337.333 930.667 336.4 930.667 317.333C930.667 298.267 930.8 297.333 933.333 297.333C935.867 297.333 936 298.267 936 317.333ZM1801.07 435.467C1806.67 436.533 1814 438.8 1817.33 440.4C1825.47 444.267 1835.6 453.867 1839.47 461.6C1846.8 476.133 1846.53 464.533 1846.93 733.333L1847.33 982L1844.4 991.467C1836.93 1014.93 1821.6 1026.13 1792 1029.6C1759.6 1033.33 1735.87 1023.47 1724.8 1001.33C1714.67 981.067 1715.33 1000.8 1715.33 723.333C1715.33 488.8 1715.47 475.067 1717.73 469.333C1725.33 450 1740.53 438.667 1763.73 434.667C1774.27 432.933 1790.27 433.2 1801.07 435.467ZM952.533 438C972.933 443.6 986.533 459.067 990.667 481.333C991.2 484.667 991.867 599.2 992.133 736L992.667 984.667L989.733 993.2C981.867 1016.4 966.4 1027.47 937.333 1030.93C915.2 1033.47 894.4 1029.07 882.933 1019.2C871.467 1009.47 864.267 994.267 861.333 973.6C860.267 966.4 860 891.333 860.267 720L860.667 476.667L863.6 469.467C871.6 450.133 884.667 440.4 909.067 436C918 434.267 943.333 435.6 952.533 438ZM1470.4 436.667C1493.73 442.133 1508.27 457.867 1511.87 481.333C1512.67 486.667 1513.33 583.067 1513.47 736C1513.73 1006.93 1514.27 988.667 1505.73 1004.27C1496.4 1021.47 1476.13 1030.67 1448.13 1030.67C1412.8 1030.53 1394.13 1017.47 1385.07 986L1382 975.333V725.333V475.333L1385.07 467.733C1388.67 458.8 1398 448 1406 443.333C1419.6 435.333 1450.93 432.133 1470.4 436.667ZM1362.67 459.333V480H1341.33H1320V608V735.867L1338.4 736.267L1356.67 736.667L1357.07 756.267L1357.47 776H1339.33H1321.33V900.667V1025.33H1294.93H1268.4L1267.73 732.933C1267.33 572.267 1267.2 440.267 1267.6 439.6C1267.87 439.067 1289.47 438.667 1315.47 438.667H1362.67V459.333ZM1587.73 711.6L1588 984H1606H1624V1004.67V1025.33H1579.33H1534.67V732V438.667L1561.07 438.933L1587.33 439.333L1587.73 711.6ZM1693.33 528.933C1693.33 578.667 1693.73 710.667 1694.27 822.267L1695.07 1025.33H1668.27H1641.33V862.267C1641.33 772.533 1640.93 640.533 1640.4 568.933L1639.6 438.667H1666.4H1693.33V528.933ZM805.6 443.733C823.333 449.6 834 460.667 837.333 476.533C838.267 481.067 838.8 545.467 839.067 666.667C839.333 870.4 840 855.467 830.533 869.333C821.733 882.267 806.667 888.667 781.067 890.133L766.667 891.067V958.933V1026.67H740.933H715.067L714.267 975.6C713.733 947.6 713.333 815.6 713.333 682.267V439.733L755.067 440.267C793.467 440.8 797.333 441.067 805.6 443.733ZM1106.8 443.733C1117.87 447.467 1125.73 453.067 1130.8 461.067C1138.93 473.733 1138.53 467.867 1138.93 619.333C1139.33 774.667 1139.87 766.4 1129.87 779.467L1125.07 785.733L1131.87 896.533C1135.6 957.467 1139.07 1011.33 1139.6 1016.27L1140.4 1025.33H1114.8C1095.33 1025.33 1089.33 1024.93 1089.2 1023.6C1089.2 1022.8 1087.2 971.867 1084.93 910.667L1080.67 799.333L1072.67 798.933L1064.67 798.533V912.267V1026L1039.87 1026.4L1015.07 1026.67L1014.27 960.533C1013.73 924 1013.33 792 1013.33 667.067V439.867L1055.73 440.267C1094.93 440.8 1098.67 441.067 1106.8 443.733ZM1253.33 461.333V482.667H1241.33H1229.33V754V1025.33H1202.67H1176V754V482.667H1164H1152V461.333V440H1202.67H1253.33V461.333ZM1545.33 1138.27C1556.4 1143.73 1565.6 1152.93 1571.07 1164C1575.07 1172 1575.33 1173.6 1575.33 1186.67C1575.33 1199.07 1574.93 1201.6 1571.73 1208.27C1566.93 1218.53 1560.93 1225.87 1552.8 1231.2C1538.13 1240.67 1560.8 1240 1280 1240C998.8 1240 1021.87 1240.8 1007.07 1231.07C998.667 1225.6 993.2 1218.93 988.267 1208.4C985.067 1201.47 984.667 1199.2 984.667 1186.67C984.667 1173.6 984.933 1172 988.933 1164C995.733 1150.27 1007.87 1139.6 1021.73 1135.2C1026.27 1133.87 1074 1133.6 1282 1133.73L1536.67 1134L1545.33 1138.27Z" fill="#18181B"/>
<path d="M1518.53 302C1509.33 306.933 1509.47 325.333 1518.8 330C1531.6 336.667 1544.4 324.933 1540.13 310.667C1537.47 301.6 1526.93 297.333 1518.53 302Z" fill="#18181B"/>
<path d="M1670.8 301.867C1666.27 304.4 1664.13 309.067 1664 316.133C1664 327.2 1672.53 333.867 1682.8 330.8C1690.27 328.533 1693.73 322.8 1692.93 314.133C1692.4 308.8 1691.47 306.8 1688.13 303.733C1683.47 299.6 1676.4 298.8 1670.8 301.867Z" fill="#18181B"/>
<path d="M1726.67 316V332H1730.4C1742.13 332 1749.33 326.133 1749.33 316.533C1749.33 305.2 1744.13 300 1732.67 300H1726.67V316Z" fill="#18181B"/>
<path d="M880 317.333V333.333H883.733C895.467 333.333 902.667 327.467 902.667 317.867C902.667 306.533 897.467 301.333 886 301.333H880V317.333Z" fill="#18181B"/>
<path d="M1144 316.667V332H1150C1160.93 332 1166.67 326.8 1166.67 316.667C1166.67 306.533 1160.93 301.333 1150 301.333H1144V316.667Z" fill="#18181B"/>
<path d="M1254.13 305.333C1253.73 306.4 1252.27 310.667 1250.67 314.667C1249.2 318.667 1248 322.133 1248 322.267C1248 322.533 1251.07 322.667 1254.67 322.667C1258.4 322.667 1261.33 322.267 1261.33 321.6C1261.2 318.4 1254.8 303.6 1254.13 305.333Z" fill="#18181B"/>
<path d="M704 308V314.667H709.467C716.933 314.667 720 312.8 720 308C720 303.2 716.933 301.333 709.467 301.333H704V308Z" fill="#18181B"/>
<path d="M704 326V333.333H710.4C715.067 333.333 717.6 332.667 719.067 330.933C724.533 324.933 719.6 318.667 709.733 318.667H704V326Z" fill="#18181B"/>
<path d="M1772.53 482L1769.33 485.2L1769.6 731.867C1770 972.133 1770 978.4 1772.53 981.2C1776 985.067 1786.8 985.2 1790.67 981.333C1793.33 978.667 1793.33 977.467 1793.07 731.867L1792.67 485.067L1788.93 481.867C1783.87 477.6 1776.93 477.6 1772.53 482Z" fill="#18181B"/>
<path d="M917.867 483.333L914.667 486.533L914.933 733.2C915.333 973.467 915.333 979.733 917.867 982.533C921.333 986.4 932.133 986.533 936 982.667C938.667 980 938.667 978.8 938.4 733.2L938 486.4L934.267 483.2C929.2 478.933 922.267 478.933 917.867 483.333Z" fill="#18181B"/>
<path d="M1441.73 480C1440.13 480.667 1438.13 482.4 1437.33 483.867C1435.33 487.867 1435.47 974.667 1437.47 979.2C1439.07 982.533 1443.73 985.333 1448.13 985.333C1451.87 985.333 1458.13 981.867 1459.2 979.333C1459.6 978.133 1460 867.867 1459.87 734.267C1459.87 549.733 1459.47 490.267 1458.27 486.667C1455.87 479.867 1449.07 477.067 1441.73 480Z" fill="#18181B"/>
<path d="M764 656.4C764 752.8 764.4 836.267 764.933 842L765.733 852.267L774.267 851.733C780.8 851.333 783.467 850.533 785.733 848.267L788.667 845.2V666.8V488.267L785.467 484.8C782.533 481.733 781.2 481.333 773.067 481.333H764V656.4Z" fill="#18181B"/>
<path d="M1064 621.333V762.667H1073.07C1081.2 762.667 1082.53 762.267 1085.47 759.2L1088.67 755.733V623.6C1088.67 550.8 1088.13 489.6 1087.6 487.6C1086.27 482.8 1079.87 480 1070.67 480H1064V621.333Z" fill="#18181B"/>
<path d="M1022.4 1140.53C1008.93 1145.33 999.467 1153.87 993.467 1166.67C990.4 1173.07 990 1175.73 990 1187.33C990 1198.53 990.533 1201.6 993.2 1206.93C1000.4 1221.6 1014.4 1232 1030.67 1234.53C1042.53 1236.53 1517.33 1236.53 1529.2 1234.67C1545.33 1232 1557.73 1223.2 1565.47 1209.07C1569.73 1201.07 1570 1200 1570 1187.33C1570 1175.73 1569.6 1173.07 1566.53 1166.53C1561.73 1156.4 1555.07 1149.33 1545.07 1143.87L1536.67 1139.33L1282 1139.07C1074.8 1138.8 1026.4 1139.07 1022.4 1140.53ZM1513.33 1181.6C1513.47 1203.33 1513.47 1203.33 1516 1200.27C1518.53 1197.33 1521.33 1197.2 1521.33 1200.13C1521.33 1202.4 1513.07 1213.33 1511.33 1213.33C1508.93 1213.33 1500.93 1201.47 1501.87 1199.33C1502.8 1196.8 1504.8 1196.8 1505.87 1199.33C1506.27 1200.4 1507.2 1201.33 1508 1201.33C1508.8 1201.33 1509.33 1194 1509.33 1180.67C1509.33 1163.2 1509.6 1160 1511.33 1160C1513.07 1160 1513.33 1163.33 1513.33 1181.6ZM1401.33 1167.33C1402.67 1168.93 1402.67 1169.73 1401.33 1171.33C1398 1175.33 1393.2 1172.27 1395.2 1167.33C1395.6 1166.27 1396.8 1165.33 1397.73 1165.33C1398.8 1165.33 1400.4 1166.27 1401.33 1167.33ZM1158.67 1184.67C1158.67 1200.4 1158.53 1201.33 1156 1201.33C1153.47 1201.33 1153.33 1200.4 1153.33 1184.67C1153.33 1168.93 1153.47 1168 1156 1168C1158.53 1168 1158.67 1168.93 1158.67 1184.67ZM1172 1184.67V1201.33H1168.67H1165.33V1184.67V1168H1168.67H1172V1184.67ZM1341.33 1184.67V1201.33H1338H1334.67V1184.67V1168H1338H1341.33V1184.67ZM1069.33 1172C1072.93 1175.6 1072.8 1178.67 1068.8 1178.67C1067.07 1178.67 1065.33 1177.73 1064.8 1176.67C1063.87 1174.13 1057.87 1174 1056.93 1176.4C1055.87 1179.2 1057.47 1180.53 1064.13 1183.07C1071.2 1185.73 1074 1190.13 1072 1195.2C1069.47 1202 1058.27 1203.73 1052.67 1198C1050.8 1196.27 1049.33 1194.13 1049.33 1193.33C1049.33 1191.2 1055.47 1191.73 1057.33 1194C1059.73 1196.93 1064.53 1196 1065.07 1192.4C1065.47 1190.13 1064.4 1189.2 1058.67 1187.33C1048.93 1184.13 1046.67 1178.53 1052.67 1172.67C1056.8 1168.4 1065.47 1168.13 1069.33 1172ZM1210.67 1172C1210.67 1174.13 1209.73 1174.67 1206.67 1174.67H1202.67V1188V1201.33H1199.33H1196V1188V1174.67H1192C1188.93 1174.67 1188 1174.13 1188 1172C1188 1169.6 1188.93 1169.33 1199.33 1169.33C1209.73 1169.33 1210.67 1169.6 1210.67 1172ZM1274.4 1172.27C1274.8 1174.27 1273.87 1174.67 1268.13 1174.67C1261.47 1174.67 1261.33 1174.8 1261.33 1178.67C1261.33 1182.4 1261.6 1182.67 1266.67 1182.67C1271.07 1182.67 1272 1183.07 1272 1185.33C1272 1187.6 1271.07 1188 1266.67 1188C1261.6 1188 1261.33 1188.27 1261.33 1191.87C1261.33 1195.6 1261.6 1195.87 1267.6 1196.27C1272.4 1196.53 1274.13 1197.2 1274.4 1198.93C1274.8 1201.07 1273.73 1201.33 1265.47 1201.33H1256V1185.33V1169.2L1264.93 1169.6C1272.27 1169.87 1274 1170.4 1274.4 1172.27ZM1097.33 1178.67C1100.67 1182 1100.8 1185.33 1097.47 1185.33C1096.13 1185.33 1094.27 1184.4 1093.33 1183.33C1092.4 1182.27 1090.27 1181.33 1088.53 1181.33C1081.87 1181.33 1081.33 1194.8 1087.87 1195.73C1089.6 1196 1091.6 1195.6 1092.4 1194.8C1094.27 1192.93 1100 1192.93 1100 1194.67C1100 1197.87 1094.53 1201.33 1089.47 1201.33C1081.33 1201.33 1076.67 1196.67 1076.67 1188.67C1076.67 1183.47 1077.33 1181.87 1080.4 1179.2C1085.2 1175.07 1093.47 1174.8 1097.33 1178.67ZM1112 1177.33C1112 1178.27 1112.8 1178.27 1114.53 1177.33C1118.67 1175.2 1120 1175.73 1120 1179.33C1120 1181.6 1119.33 1182.67 1117.6 1182.67C1113.47 1182.67 1112 1185.6 1112 1193.6C1112 1200.93 1111.87 1201.33 1108.67 1201.33C1105.33 1201.33 1105.33 1201.33 1105.33 1188.67C1105.33 1176 1105.33 1176 1108.67 1176C1110.53 1176 1112 1176.67 1112 1177.33ZM1144.13 1179.87C1149.2 1185.07 1149.33 1191.47 1144.53 1197.2C1141.6 1200.67 1140.13 1201.33 1135.2 1201.33C1126.8 1201.33 1122.67 1197.07 1122.67 1188.67C1122.67 1183.73 1123.33 1181.87 1126.13 1179.33C1131.33 1174.53 1138.93 1174.8 1144.13 1179.87ZM1236.13 1179.87C1238.93 1182.8 1240 1185.07 1240 1188.67C1240 1198.27 1228.53 1204.53 1219.73 1199.87C1215.47 1197.6 1212.93 1190 1214.67 1184.53C1217.73 1175.2 1229.07 1172.8 1236.13 1179.87ZM1286.13 1179.33C1287.33 1181.2 1288.8 1182.67 1289.33 1182.67C1289.87 1182.67 1290.93 1181.2 1291.73 1179.33C1292.8 1177.07 1294.4 1176 1296.67 1176C1300.8 1176 1300.8 1176.27 1296.13 1183.07L1292.27 1188.67L1296.13 1194C1300.8 1200.53 1300.8 1201.33 1296.8 1201.33C1294.8 1201.33 1292.4 1199.87 1290.67 1197.6C1289.07 1195.6 1287.6 1194.67 1287.2 1195.47C1285.47 1199.47 1282.93 1201.6 1280.27 1201.07L1277.2 1200.67L1281.07 1194.53L1284.93 1188.53L1281.2 1183.2C1276.53 1176.8 1276.53 1176 1280.67 1176C1282.67 1176 1284.8 1177.2 1286.13 1179.33ZM1310.67 1177.33C1310.67 1178.27 1311.47 1178.27 1313.2 1177.33C1321.47 1172.93 1330 1178.8 1330 1188.67C1330 1198.53 1321.47 1204.4 1313.2 1200C1310.8 1198.67 1310.67 1199.07 1310.67 1206C1310.67 1212.93 1310.53 1213.33 1307.33 1213.33H1304V1194.67V1176H1307.33C1309.2 1176 1310.67 1176.67 1310.67 1177.33ZM1368.13 1179.87C1373.2 1185.07 1373.33 1191.47 1368.53 1197.2C1365.6 1200.67 1364.13 1201.33 1359.2 1201.33C1350.8 1201.33 1346.67 1197.07 1346.67 1188.67C1346.67 1183.73 1347.33 1181.87 1350.13 1179.33C1355.33 1174.53 1362.93 1174.8 1368.13 1179.87ZM1383.07 1177.6C1383.6 1178.93 1384 1178.93 1385.47 1177.6C1388.27 1174.93 1390.67 1175.73 1390.67 1179.33C1390.67 1181.73 1390 1182.67 1388 1182.67C1384.67 1182.67 1382.67 1187.33 1382.67 1195.47C1382.67 1200.4 1382.27 1201.33 1380 1201.33C1377.47 1201.33 1377.33 1200.4 1377.33 1188.67C1377.33 1177.07 1377.6 1176 1379.87 1176C1381.33 1176 1382.67 1176.8 1383.07 1177.6ZM1401.33 1188.67C1401.33 1201.33 1401.33 1201.33 1398 1201.33C1394.67 1201.33 1394.67 1201.33 1394.67 1188.67C1394.67 1176 1394.67 1176 1398 1176C1401.33 1176 1401.33 1176 1401.33 1188.67ZM1414.67 1177.6C1414.67 1178.8 1415.07 1178.8 1416.27 1177.6C1417.2 1176.67 1419.87 1176 1422.13 1176C1429.07 1176 1432 1180.93 1432 1192.13C1432 1201.07 1431.87 1201.33 1428.67 1201.33C1425.6 1201.33 1425.47 1200.93 1425.07 1192.53C1424.67 1182.67 1422.27 1179.33 1417.73 1182.13C1415.87 1183.2 1415.2 1185.73 1414.93 1192.53C1414.53 1200.93 1414.4 1201.33 1411.33 1201.33C1408 1201.33 1408 1201.2 1408 1188.67C1408 1176 1408 1176 1411.33 1176C1413.2 1176 1414.67 1176.67 1414.67 1177.6ZM1453.47 1177.33C1455.2 1178.27 1456 1178.27 1456 1177.33C1456 1176.67 1457.47 1176 1459.33 1176H1462.67V1190C1462.67 1209.6 1460.53 1213.33 1449.47 1213.33C1444 1213.33 1437.33 1209.2 1437.33 1205.87C1437.33 1203.33 1442.27 1203.47 1444.8 1206C1449.07 1210.27 1456 1207.6 1456 1201.73C1456 1199.07 1455.6 1198.8 1453.47 1200C1448.4 1202.67 1443.07 1201.6 1439.47 1197.2C1430.53 1186.67 1441.47 1171.07 1453.47 1177.33Z" fill="#18181B"/>
<path d="M1130.93 1182.93C1130 1183.87 1129.33 1186.4 1129.33 1188.67C1129.33 1193.6 1131.47 1196 1135.6 1196C1140.8 1196 1143.33 1187.47 1139.2 1183.47C1136.8 1180.93 1133.2 1180.67 1130.93 1182.93Z" fill="#18181B"/>
<path d="M1221.73 1184.8C1219.73 1188 1219.73 1188.67 1221.47 1191.87C1225.07 1198.27 1233.33 1196 1233.33 1188.67C1233.33 1181.6 1225.6 1178.93 1221.73 1184.8Z" fill="#18181B"/>
<path d="M1312.8 1183.47C1308.53 1187.6 1311.47 1196 1317.2 1196C1320.27 1196 1324 1191.87 1324 1188.4C1324 1185.33 1320.13 1181.33 1316.93 1181.33C1315.87 1181.33 1313.87 1182.27 1312.8 1183.47Z" fill="#18181B"/>
<path d="M1354.93 1182.93C1354 1183.87 1353.33 1186.4 1353.33 1188.67C1353.33 1193.6 1355.47 1196 1359.6 1196C1364.8 1196 1367.33 1187.47 1363.2 1183.47C1360.8 1180.93 1357.2 1180.67 1354.93 1182.93Z" fill="#18181B"/>
<path d="M1444.93 1183.73C1442 1186.93 1442.13 1191.07 1445.07 1193.73C1448.13 1196.53 1451.2 1196.67 1453.87 1193.87C1456.67 1191.07 1456.53 1186.27 1453.6 1183.6C1450.4 1180.67 1447.6 1180.8 1444.93 1183.73Z" fill="#18181B"/>
</g>
</g>
<defs>
<clipPath id="clip0_2_2">
<rect width="2560" height="1440" fill="white"/>
</clipPath>
</defs>
</svg>
