<svg width="800" height="228" viewBox="0 0 800 228" fill="none" xmlns="http://www.w3.org/2000/svg">
<path fill-rule="evenodd" clip-rule="evenodd" d="M744.864 94.4109C744.145 94.5547 743.423 96.1406 743.423 97.0047C743.28 102.773 743.136 118.058 743.136 128.439C743.136 128.728 743.567 129.305 744 129.305C746.162 129.448 751.353 129.592 755.823 129.592C762.023 129.592 765.628 128.728 767.648 127.864C772.837 125.267 775.289 119.644 775.289 113.442C775.289 99.4578 765.484 94.1219 750.92 94.1219C749.911 93.9781 747.03 93.9781 744.864 94.4109ZM782.067 158.864C782.067 144.589 771.541 136.658 752.508 136.658C751.642 136.658 745.586 136.514 744.144 136.802C743.711 136.947 743.136 137.236 743.136 137.669C743.136 147.905 742.991 164.2 743.423 170.544C743.711 173.283 745.731 177.177 748.183 178.33C750.777 179.772 756.689 180.059 760.726 180.059C772.117 180.059 782.067 173.716 782.067 158.864ZM715.452 86.4812C716.892 86.4812 721.217 86.9125 732.32 86.9125C742.847 86.9125 751.209 86.625 761.447 86.625C773.991 86.625 791.294 91.0937 791.294 109.839C791.294 119.067 784.805 126.422 776.298 130.027C775.867 130.17 775.867 130.458 776.298 130.602C788.409 133.631 799.081 141.128 799.081 155.258C799.081 169.102 790.43 177.897 777.884 183.377C770.242 186.692 760.727 187.845 751.066 187.845C743.711 187.845 723.958 186.981 713 187.27C711.847 186.836 714.009 181.645 715.017 180.781C717.614 180.636 719.631 180.492 722.372 179.627C726.266 178.619 726.697 177.464 727.273 171.553C727.562 166.506 727.562 148.625 727.562 135.937C727.562 118.491 727.708 106.667 727.562 100.9C727.419 96.4312 725.833 94.9875 722.661 94.1219C720.208 93.6906 716.172 93.1125 712.855 92.6812C712.133 91.9594 714.584 87.0562 715.452 86.4812ZM632.251 176.167C635.714 178.905 642.491 180.058 648.547 180.058C656.333 180.058 664.119 178.619 671.617 171.839C679.259 164.92 684.594 154.25 684.594 137.236C684.594 120.941 678.394 107.675 665.705 99.8906C658.495 95.4187 649.267 93.5469 638.597 93.5469C635.425 93.5469 632.397 93.6906 630.523 94.5547C630.089 94.8437 629.081 96.1406 629.081 96.8609C628.792 99.7453 628.792 121.95 628.792 134.928C628.792 148.337 628.792 167.083 629.081 169.245C629.081 171.409 630.089 174.725 632.253 176.167H632.251ZM599.52 86.4797C602.261 86.4797 612.786 86.9125 617.833 86.9125C626.919 86.9125 633.406 86.4812 650.564 86.4812C664.983 86.4812 677.095 90.3734 685.747 97.7265C696.272 106.811 701.753 119.356 701.753 134.639C701.753 156.412 691.803 168.958 681.853 176.167C671.906 183.52 658.928 187.845 640.472 187.845C630.667 187.845 613.797 187.558 599.809 187.412H599.666C598.945 186.116 600.819 181.069 601.972 180.925C605.722 180.492 606.731 180.347 608.606 179.628C611.633 178.473 612.211 176.887 612.644 171.553C613.075 161.603 612.931 149.636 612.931 136.081C612.931 126.422 613.075 107.531 612.786 101.475C612.355 96.4297 610.192 95.1312 605.866 94.2656C603.703 93.8344 600.819 93.2562 596.783 92.825C596.205 91.8141 598.8 87.3437 599.52 86.4797Z" fill="#8E714E"/>
<path fill-rule="evenodd" clip-rule="evenodd" d="M425.052 181.789C421.447 181.356 418.852 180.781 415.68 179.339C415.247 179.05 414.525 177.609 414.525 177.031C414.237 171.984 414.237 157.566 414.237 147.906C414.237 140.119 412.941 133.342 409.623 128.584C405.73 123.103 400.108 119.933 392.897 119.933C386.553 119.933 378.045 124.258 370.98 130.314C370.836 130.458 369.683 131.469 369.827 129.881C369.827 128.295 370.116 125.123 370.259 122.959C370.405 120.941 369.25 119.933 369.25 119.933C364.636 122.239 351.659 125.267 346.9 125.698C343.441 126.422 342.575 129.737 346.181 130.891H346.325C350.216 132.044 352.812 133.342 354.83 134.641C356.272 135.794 356.128 137.38 356.128 138.678C356.272 149.491 356.272 166.073 355.841 175.158C355.697 178.762 354.687 180.059 352.091 180.636L352.38 180.492C350.361 180.925 348.775 181.356 346.323 181.645C345.458 182.511 345.458 187.125 346.323 188.134C347.909 188.134 356.272 187.702 363.195 187.702C372.711 187.702 377.614 188.134 380.064 188.134C381.073 186.981 381.362 182.655 380.786 181.645C378.045 181.502 376.027 181.214 374.153 180.636C371.558 180.058 370.836 178.762 370.691 175.734C370.405 168.091 370.405 151.942 370.405 140.984C370.405 137.956 371.269 136.514 372.133 135.648C375.45 132.766 380.786 130.747 385.544 130.747C390.158 130.747 393.184 132.189 395.492 134.064C398.664 136.658 399.673 140.408 400.106 143.147C400.827 149.347 400.539 161.603 400.539 172.273C400.539 178.041 400.106 179.483 397.945 180.203C396.934 180.636 394.339 181.214 391.311 181.5C390.302 182.511 390.591 186.981 391.311 187.991C395.492 187.991 400.395 187.558 407.605 187.558C416.544 187.558 422.312 187.991 424.62 187.991C425.339 187.125 425.628 182.944 425.052 181.789ZM464.992 126.711C457.352 126.711 452.592 132.622 452.592 141.848C452.592 151.222 456.773 162.036 468.597 162.036C470.616 162.036 474.366 161.17 476.094 159.152C478.834 156.558 480.709 151.366 480.709 145.886C480.709 133.919 474.797 126.711 464.992 126.711ZM463.983 190.441C461.1 190.441 459.08 191.306 457.783 192.028C451.727 195.919 448.987 199.669 448.987 204.141C448.987 208.32 450.573 211.636 454.034 214.52C458.216 218.125 463.983 219.856 471.336 219.856C486.044 219.856 492.533 211.925 492.533 204.141C492.533 198.659 489.792 195.055 484.17 193.037C480.133 191.306 472.78 190.441 463.983 190.441ZM464.992 227.931C456.197 227.931 449.852 226.056 444.373 221.875C439.037 217.837 436.731 211.781 436.731 207.6C436.731 206.447 437.02 203.273 439.616 200.391C441.2 198.659 444.662 195.344 452.881 189.72C453.169 189.577 453.312 189.433 453.312 189.142C453.312 188.855 453.023 188.566 452.736 188.423C445.959 185.828 443.941 181.645 443.363 179.339V179.05C443.22 178.184 442.931 177.32 444.23 176.455C445.239 175.734 446.681 174.869 448.266 173.861C450.717 172.417 453.312 170.831 454.898 169.533C455.187 169.245 455.187 168.958 455.187 168.669C455.187 168.38 454.898 168.091 454.609 167.948C444.519 164.631 439.472 157.133 439.472 145.886C439.472 138.533 442.787 131.9 448.698 127.719C452.736 124.547 462.83 120.653 469.462 120.653H469.895C476.672 120.797 480.42 122.239 485.755 124.114C488.639 125.123 491.38 125.555 495.13 125.555C500.752 125.555 503.203 123.825 505.22 121.808C505.366 122.095 505.655 122.817 505.798 124.691C505.942 126.566 505.366 129.305 503.923 131.323C502.77 132.909 500.175 134.064 497.58 134.064H496.858C494.263 133.775 493.108 133.486 493.108 133.486L492.533 133.775C492.389 134.064 492.533 134.352 492.677 134.784L492.822 135.073C493.109 136.37 493.686 140.262 493.686 141.273C493.686 153.097 488.928 158.286 483.881 162.18C478.978 165.784 473.356 168.091 467.011 168.669C466.867 168.669 466.292 168.669 464.992 168.812C464.272 168.812 463.262 168.958 463.117 168.958H462.973C461.82 169.245 458.937 170.687 458.937 173.137C458.937 175.3 460.234 177.897 466.434 178.33C467.731 178.473 469.028 178.473 470.472 178.619C478.691 179.194 488.928 179.916 493.686 181.502C500.319 183.952 504.5 189.864 504.5 196.93C504.5 207.602 496.859 217.55 484.17 223.748C477.97 226.489 471.769 227.931 464.992 227.931ZM547.18 127.431C544.153 127.431 541.412 128.15 539.394 129.592C533.772 133.053 530.887 139.975 530.887 150.067C530.887 168.958 540.403 182.223 553.958 182.223C557.995 182.223 561.167 181.069 563.906 178.762C568.087 175.3 570.252 168.38 570.252 158.719C570.252 139.975 560.878 127.43 547.181 127.43L547.18 127.431ZM549.777 189.144C525.264 189.144 516.469 171.12 516.469 154.25C516.469 142.427 521.227 133.342 530.742 126.853C537.52 122.672 545.595 120.366 552.805 120.366C571.548 120.366 584.67 133.775 584.67 153.097C584.67 166.217 579.48 176.598 569.53 182.944C564.772 186.116 556.553 189.144 549.775 189.144H549.777ZM292.83 127.43C289.802 127.43 287.062 128.15 285.042 129.592C279.42 133.053 276.536 139.975 276.536 150.067C276.536 168.958 286.052 182.223 299.606 182.223C303.644 182.223 306.816 181.069 309.556 178.762C313.736 175.3 315.9 168.38 315.9 158.719C315.9 139.975 306.672 127.43 292.83 127.43ZM295.425 189.144C270.912 189.144 262.117 171.12 262.117 154.25C262.117 142.427 266.875 133.342 276.391 126.853C283.169 122.672 291.244 120.366 298.453 120.366C317.198 120.366 330.319 133.775 330.319 153.097C330.319 166.217 325.128 176.598 315.178 182.944C310.564 186.116 302.345 189.144 295.425 189.144ZM130.616 187.702C130.327 187.27 130.037 185.972 130.183 184.386C130.183 183.231 130.472 182.511 130.616 182.223C133.644 181.789 135.23 181.356 136.959 180.925C139.844 180.203 140.997 178.619 141.141 175.014C141.575 166.362 141.575 149.923 141.43 138.533V138.244C141.43 136.947 141.43 135.359 139.844 134.206C137.536 132.766 134.797 131.469 131.192 130.456C129.895 130.027 129.03 129.305 129.173 128.441C129.173 127.575 130.039 126.566 131.914 126.277C136.672 125.844 149.07 122.817 153.973 120.653C154.262 120.941 154.695 121.808 154.695 122.961L154.552 124.545C154.406 126.133 154.262 128.008 154.262 129.881C154.262 130.458 154.841 130.891 155.416 130.891C155.705 130.891 155.994 130.747 156.281 130.602C165.509 123.392 173.872 120.797 178.197 120.797C185.264 120.797 190.744 124.114 194.925 131.034C195.212 131.469 195.502 131.612 195.934 131.612C196.222 131.612 196.653 131.469 196.798 131.18C205.306 124.691 213.814 120.797 219.436 120.797C232.845 120.797 240.777 130.747 240.777 147.617C240.777 152.375 240.777 158.575 240.633 164.2C240.633 169.245 240.489 173.859 240.489 177.177C240.489 177.895 241.497 180.203 243.083 180.636C245.102 181.645 247.842 182.078 251.447 182.655H251.591C251.88 183.664 251.303 187.412 250.727 188.134C249.861 188.134 248.562 188.134 247.122 187.991C243.472 187.8 239.817 187.704 236.162 187.702C227.223 187.702 222.609 187.845 218.137 188.134C217.852 186.981 217.706 183.52 218.137 182.655C220.734 182.223 222.031 181.789 223.619 181.358C226.503 180.492 227.223 179.194 227.369 175.445C227.369 172.706 227.944 149.347 227.078 143.723C226.214 137.956 221.887 131.18 212.37 131.18C208.766 131.18 203.144 132.622 197.664 136.802C197.377 137.091 197.086 137.811 197.086 138.244V138.389C197.664 141.416 197.664 144.878 197.664 150.212V159.584C197.664 166.073 197.519 172.13 197.664 176.742C197.664 179.916 199.539 180.636 201.125 181.214C201.991 181.356 202.566 181.502 203.287 181.645C204.584 181.934 205.883 182.223 207.902 182.655C208.191 183.233 208.191 185.106 207.758 186.692C207.612 187.558 207.323 187.989 207.18 188.134C202.278 187.991 197.231 187.845 189.878 187.845C187.716 187.845 183.966 187.991 180.794 187.991C178.197 187.991 175.747 188.134 174.306 188.134C174.161 187.845 173.872 186.837 173.872 185.25C173.872 183.953 174.161 182.944 174.45 182.655C175.17 182.511 175.747 182.367 176.469 182.367C178.197 182.078 179.641 181.789 181.081 181.502C183.534 180.781 184.398 179.483 184.542 176.311C184.975 169.102 185.408 148.483 184.398 143.291C182.669 134.928 177.911 130.747 170.267 130.747C165.798 130.747 160.173 132.909 155.561 136.372C154.839 136.947 154.262 138.387 154.262 139.686V148.194C154.262 158.575 154.262 171.553 154.406 177.177C154.552 178.905 155.127 180.925 158.444 181.645C159.166 181.789 160.319 182.078 161.761 182.223L164.355 182.655C164.645 183.52 164.5 186.981 163.923 188.134C162.481 188.134 160.752 187.991 158.731 187.991C155.705 187.845 151.811 187.702 147.486 187.702C142.439 187.702 138.834 187.845 135.95 187.991C133.931 187.702 132.345 187.702 130.616 187.702Z" fill="#442D22"/>
<path fill-rule="evenodd" clip-rule="evenodd" d="M54.7703 222.308L48.8594 220.288C48.8594 220.288 49.5812 190.153 38.7656 187.991C31.5578 179.627 39.9219 -166.717 65.875 186.836C65.875 186.836 56.9344 191.305 55.3484 198.948C53.6172 206.447 54.7703 222.308 54.7703 222.308Z" fill="white"/>
<path fill-rule="evenodd" clip-rule="evenodd" d="M54.7703 222.308L48.8594 220.288C48.8594 220.288 49.5812 190.153 38.7656 187.991C31.5578 179.627 39.9219 -166.717 65.875 186.836C65.875 186.836 56.9344 191.305 55.3484 198.948C53.6172 206.447 54.7703 222.308 54.7703 222.308Z" fill="#A6A385"/>
<path fill-rule="evenodd" clip-rule="evenodd" d="M57.9437 193.181C57.9437 193.181 109.709 159.152 97.5953 88.3531C85.9172 36.8797 58.3766 20.0094 55.3484 13.5203C52.0328 8.90626 48.8594 0.832825 48.8594 0.832825L51.0234 144.011C51.0234 144.156 46.5531 187.845 57.9453 193.183" fill="white"/>
<path fill-rule="evenodd" clip-rule="evenodd" d="M57.9437 193.181C57.9437 193.181 109.709 159.152 97.5953 88.3531C85.9172 36.8797 58.3766 20.0094 55.3484 13.5203C52.0328 8.90626 48.8594 0.832825 48.8594 0.832825L51.0234 144.011C51.0234 144.156 46.5531 187.845 57.9453 193.183" fill="#499D4A"/>
<path fill-rule="evenodd" clip-rule="evenodd" d="M45.8328 195.055C45.8328 195.055 -2.76099 161.891 0.123384 103.495C2.86245 45.0984 37.1796 16.4047 43.8124 11.2141C48.139 6.60001 48.2828 4.86876 48.5718 0.2547C51.5999 6.74376 51.0234 97.2953 51.4546 107.964C52.7515 149.058 49.1484 187.27 45.8328 195.055Z" fill="white"/>
<path fill-rule="evenodd" clip-rule="evenodd" d="M45.8328 195.055C45.8328 195.055 -2.76099 161.891 0.123384 103.495C2.86245 45.0984 37.1796 16.4047 43.8124 11.2141C48.139 6.60001 48.2828 4.86876 48.5718 0.2547C51.5999 6.74376 51.0234 97.2953 51.4546 107.964C52.7515 149.058 49.1484 187.27 45.8328 195.055Z" fill="#58AA50"/>
</svg>
